<svg width="30" height="30" viewBox="0 0 30 30" fill="none" xmlns="http://www.w3.org/2000/svg">
<path d="M5 5H7.03204C7.70952 5 8.04826 5 8.32226 5.13792C8.47394 5.21428 8.60908 5.31979 8.71994 5.44842C8.9202 5.68079 9.00235 6.00942 9.16667 6.66667L9.39366 7.57464C9.50498 8.01992 9.56064 8.24255 9.64136 8.43151C9.98987 9.24735 10.7326 9.82728 11.6086 9.96752C11.8115 10 12.041 10 12.5 10" stroke="#222222" stroke-width="2.58333" stroke-linecap="round"/>
<path d="M22.5 21.25H9.43863C9.30761 21.25 9.24209 21.25 9.19225 21.2461C8.3955 21.1844 7.84545 20.4212 8.0388 19.6458C8.0509 19.5973 8.07162 19.5352 8.11305 19.4109C8.15906 19.2728 8.18206 19.2038 8.20609 19.1424C8.57602 18.1965 9.46581 17.5552 10.4801 17.5034C10.546 17.5 10.6187 17.5 10.7642 17.5H17.5" stroke="#222222" stroke-width="2.58333" stroke-linecap="round" stroke-linejoin="round"/>
<path d="M19.6534 17.5H12.1884C10.9256 17.5 9.84784 16.587 9.64023 15.3414L9.126 12.256C8.92918 11.0751 9.83988 10 11.0371 10H22.91C23.8702 10 24.4948 11.0105 24.0653 11.8693L21.964 16.072C21.5264 16.9472 20.6319 17.5 19.6534 17.5Z" stroke="#222222" stroke-width="2.58333" stroke-linecap="round"/>
<circle cx="21.25" cy="25" r="1.25" fill="#222222"/>
<circle cx="11.25" cy="25" r="1.25" fill="#222222"/>
</svg>
