<?xml version="1.0" encoding="UTF-8"?>
<svg xmlns="http://www.w3.org/2000/svg" id="Layer_1" data-name="Layer 1" viewBox="0 0 438.1 99.21">
  <defs>
    <style>.cls-1{fill:#d23223;}</style>
  </defs>
  <title>DUF_Logotype_Horisontal_RGB</title>
  <path class="cls-1" d="M238.41.37c4.13,0,6.84.89,9,2.46a13.06,13.06,0,0,1,5.17,10.56,13.05,13.05,0,0,1-5.17,10.55c-2.12,1.57-4.83,2.46-9,2.46h-8.18V.37Zm7.21,7.36A7.93,7.93,0,0,0,239,4.83h-3.72V21.94H239a7.93,7.93,0,0,0,6.65-2.9,9,9,0,0,0,1.9-5.65A9,9,0,0,0,245.62,7.73Z"></path>
  <path class="cls-1" d="M253.1,26.4l11.15-26h3.54l11.15,26H273.7l-2.46-5.76H260.8l-2.46,5.76Zm9.59-10.23h6.62L266,8.48Z"></path>
  <path class="cls-1" d="M282.54.37h3.53l14.5,17V.37h5v26h-3.53l-14.5-17v17h-5Z"></path>
  <path class="cls-1" d="M313.07,19.45a8.58,8.58,0,0,0,6.13,2.86c2.23,0,3.8-1.38,3.8-3.27,0-3.35-4.84-3.76-8.33-5.8A6.57,6.57,0,0,1,311,7.32C311,2.68,315.26,0,319.58,0a12,12,0,0,1,7.54,2.45l-2.6,3.72A7,7,0,0,0,320,4.46c-1.89,0-4,.82-4,2.83,0,4.2,12,2.9,12,11.67,0,4.61-4.13,7.81-8.82,7.81a13.88,13.88,0,0,1-9.4-3.9Z"></path>
  <path class="cls-1" d="M338,13.61V26.4h-5V.37h5V10.78L347.87.37h6.62L343,12.27,355.86,26.4h-6.43Z"></path>
  <path class="cls-1" d="M233.39,60.31c-2.15-1.93-3.34-4.68-3.34-8.66V36.59h5V52c0,2.38.63,3.83,1.71,4.84a6.68,6.68,0,0,0,8.84,0c1.08-1,1.72-2.46,1.72-4.84V36.59h5V51.65c0,4-1.19,6.73-3.34,8.66a12.72,12.72,0,0,1-15.62,0Z"></path>
  <path class="cls-1" d="M258.83,36.59h3.53l14.5,17v-17h5v26h-3.53l-14.5-17v17h-5Z"></path>
  <path class="cls-1" d="M291.89,49.61a8.76,8.76,0,0,0,8.89,8.92,9.11,9.11,0,0,0,5.8-2V50.91h-6.69V46.45H311.6V58a13.67,13.67,0,0,1-10.93,5c-8.11,0-13.8-5.91-13.8-13.38s5.62-13.39,13.72-13.39a13.51,13.51,0,0,1,9.52,3.72l-3.23,3.42a8.93,8.93,0,0,0-6.32-2.68A8.69,8.69,0,0,0,291.89,49.61Z"></path>
  <path class="cls-1" d="M325,36.59c4.13,0,6.84.9,9,2.46a13.37,13.37,0,0,1,0,21.12c-2.12,1.56-4.83,2.45-9,2.45H316.8v-26ZM332.19,44a7.94,7.94,0,0,0-6.65-2.9h-3.72V58.16h3.72a7.94,7.94,0,0,0,6.65-2.9,9.37,9.37,0,0,0,0-11.31Z"></path>
  <path class="cls-1" d="M355.94,36.22a13.39,13.39,0,1,1,0,26.77,13.13,13.13,0,0,1-13.57-13.38A13.14,13.14,0,0,1,355.94,36.22Zm0,22.31a8.64,8.64,0,0,0,8.55-8.92,8.56,8.56,0,1,0-17.11,0A8.65,8.65,0,0,0,355.94,58.53Z"></path>
  <path class="cls-1" d="M386.76,52.17l9.48-15.58h3.53v26h-5V48.12L388.5,58.34H385l-6.25-10.22v14.5h-5v-26h3.54Z"></path>
  <path class="cls-1" d="M407.26,55.67a8.6,8.6,0,0,0,6.14,2.86c2.23,0,3.79-1.38,3.79-3.27,0-3.35-4.83-3.76-8.33-5.8a6.58,6.58,0,0,1-3.68-5.91c0-4.65,4.28-7.33,8.59-7.33a12.07,12.07,0,0,1,7.55,2.45l-2.61,3.72a7,7,0,0,0-4.49-1.71c-1.9,0-4,.82-4,2.83,0,4.2,12,2.9,12,11.67,0,4.61-4.13,7.81-8.81,7.81a13.9,13.9,0,0,1-9.41-3.9Z"></path>
  <path class="cls-1" d="M235.25,77.28v5.39h8v4.46h-8V98.84h-5v-26h15.94v4.47Z"></path>
  <path class="cls-1" d="M265.77,77.28v5.39h8.36v4.46h-8.36v7.25h11v4.46h-16V93.08h-9.52l-3.46,5.76h-5.29l15.65-26h18.23v4.47Zm-5,11.34V77.24l-6.84,11.38Z"></path>
  <path class="cls-1" d="M282,72.81h5V94.38h11v4.46H282Z"></path>
  <path class="cls-1" d="M302,72.81h5V94.38h11v4.46H302Z"></path>
  <path class="cls-1" d="M327,77.28v5.39h8v4.46h-8v7.25h11v4.46H322v-26h15.61v4.47Z"></path>
  <path class="cls-1" d="M344.34,91.89a8.6,8.6,0,0,0,6.14,2.86c2.23,0,3.79-1.37,3.79-3.27,0-3.35-4.83-3.76-8.33-5.8a6.56,6.56,0,0,1-3.68-5.91c0-4.65,4.27-7.33,8.59-7.33a12,12,0,0,1,7.55,2.46l-2.61,3.71a7,7,0,0,0-4.5-1.71c-1.89,0-4,.82-4,2.83,0,4.2,12,2.9,12,11.67,0,4.61-4.13,7.81-8.81,7.81a13.9,13.9,0,0,1-9.41-3.9Z"></path>
  <path class="cls-1" d="M368.65,87.31V98.84h-4.78v-26h9.25a7.86,7.86,0,0,1,5.68,1.94,7.27,7.27,0,0,1,0,10.63,6.72,6.72,0,0,1-2.6,1.53l9.74,11.93h-6l-9.26-11.53Zm4.17-4.46c1.45,0,2.08-.29,2.53-.78a3,3,0,0,0,.74-2,2.74,2.74,0,0,0-3.27-2.82h-4.17v5.57Z"></path>
  <path class="cls-1" d="M424,72.81c4.13,0,6.85.9,9,2.46a13.39,13.39,0,0,1,0,21.12c-2.12,1.56-4.84,2.45-9,2.45H415.8v-26Zm7.22,7.37a7.94,7.94,0,0,0-6.66-2.9h-3.72v17.1h3.72a8,8,0,0,0,6.66-2.9,9.39,9.39,0,0,0,0-11.3Z"></path>
  <path class="cls-1" d="M404.1,77.28a6.09,6.09,0,1,0-7.36,0L387.5,98.84h5.25l2.45-5.76h10.45l2.45,5.76h5.24Zm-7,11.34,3.3-7.7,3.31,7.7ZM400.42,70A2.43,2.43,0,1,1,398,72.44,2.44,2.44,0,0,1,400.42,70"></path>
  <rect class="cls-1" x="146.61" y="0.63" width="60.04" height="8.65"></rect>
  <path class="cls-1" d="M73.56,24V12C64.31,4.43,52,.15,38.49.15H16.71V8.8H38.49C52.86,8.8,65.62,14.36,73.56,24Z"></path>
  <rect class="cls-1" width="8.65" height="98.65"></rect>
  <polygon class="cls-1" points="155.2 41.52 155.2 26.44 206.65 26.44 206.65 17.79 146.61 17.79 146.61 50.17 146.61 50.17 146.61 50.17 206.65 50.17 206.65 41.52 155.2 41.52"></polygon>
  <polygon class="cls-1" points="206.65 58.67 146.61 58.67 146.61 98.65 155.55 98.65 155.55 67.33 206.65 67.33 206.65 58.67"></polygon>
  <path class="cls-1" d="M109.8,90C89.93,90,73.74,73,73.55,53.14h0V48.2h0c-.09-19.15-15.88-30.89-35.07-30.89H16.71V81.49H38.49a36.71,36.71,0,0,0,23-7.79,69.84,69.84,0,0,1-2.61-9.38C54,69.7,46.66,72.84,38.49,72.84H25.81V26H38.49C53,26,64.9,33.89,64.9,48.36v4.78h0c.19,24.61,20.25,45.36,44.9,45.36a44,44,0,0,0,27.89-10V76.31A35.86,35.86,0,0,1,109.8,90Z"></path>
  <path class="cls-1" d="M65,81.72A45.45,45.45,0,0,1,38.49,90H16.71v8.65H42.07a54,54,0,0,0,27.65-9.79A47.7,47.7,0,0,1,65,81.72Z"></path>
  <path class="cls-1" d="M88.94,72.5c-4.33-4.71-7-11-7-20V.63h8.91V52.5c0,6.35,1.89,10.77,4.58,13.75a19.57,19.57,0,0,0,28.79,0c2.69-3,4.58-6.92,4.58-13.27V.63h8.91V52.5c0,9-2.69,15.29-7,20a29,29,0,0,1-41.73,0Z"></path>
</svg>
