<svg width="490" height="87" viewBox="0 0 490 87" fill="none" xmlns="http://www.w3.org/2000/svg">
<path d="M442.102 0.0461349C443.894 0.648007 445.73 1.15728 447.432 1.94435C452.18 4.12034 454.913 7.87047 455.495 13.3799H446.537C444.969 9.86127 442.595 8.24085 439.101 8.47234C435.562 8.70383 433.323 10.6946 432.203 14.0744C430.904 17.9634 430.994 21.8061 432.74 25.5099C434.308 28.8434 437.041 30.1397 441.161 29.6767C444.342 29.3064 446.357 27.6859 447.253 24.5377H441.206V17.5467H455.809V37.1307C453.838 37.5011 451.912 37.3622 450.075 37.2233C449.403 36.2047 449.941 34.9547 449.135 33.9361C446.178 37.177 442.46 38.3344 438.295 38.0103C434.532 37.7326 431.218 36.4362 428.306 33.8898C422.931 29.2138 420.781 20.4172 423.2 12.6854C425.395 5.60187 430.725 1.06469 437.623 0.462815C438.967 -0.0464607 440.4 0.694304 441.699 0.0461349C441.833 0.0461349 442.013 0.0461349 442.147 0.0461349H442.102Z" fill="#EC1C24"/>
<path d="M263.38 0.0462978C263.47 0.41668 263.738 0.462978 264.052 0.509276C271.712 1.80561 276.28 6.48169 277.803 14.2597C279.147 20.9729 278.341 27.4083 273.727 32.64C268.71 38.2883 262.26 39.168 255.452 37.1309C248.823 35.1863 245.374 30.0936 244.164 23.2878C243.134 17.3617 243.94 11.7596 247.479 6.80578C250.301 2.87046 254.153 0.787063 258.901 0.41668C260.245 -0.0925956 261.678 0.648169 262.977 0H263.425L263.38 0.0462978Z" fill="#EC1C24"/>
<path d="M0 74.1228H8.91371C9.98873 79.0767 12.7659 80.5119 18.4097 79.2618C19.8431 78.9378 21.0525 78.1044 21.1869 76.3451C21.366 74.5395 20.1566 73.7524 18.8129 73.1042C16.3941 71.9931 13.8409 71.5764 11.3325 70.8356C9.18247 70.1875 7.07722 69.4467 5.19593 68.1967C0.313548 64.9095 -0.447925 57.9186 3.6282 53.5666C9.0033 47.8256 21.4556 47.8719 26.7411 53.6592C28.5776 55.65 29.3839 58.0111 29.2943 60.8816H20.5598C19.0816 57.2241 16.2597 55.7888 12.5867 56.9463C11.4669 57.3167 10.571 57.9185 10.3471 59.2612C10.1231 60.6964 11.0638 61.3909 12.094 61.9002C14.1096 62.9187 16.3493 63.2891 18.4993 63.8447C20.8285 64.4465 23.1129 65.0947 25.2182 66.2522C31.8027 69.8634 32.4298 79.4007 26.3828 83.9379C21.0077 87.9658 10.1231 88.0121 4.70322 84.1231C2.32921 82.4101 1.16461 79.8637 0.0447925 77.271V74.0302L0 74.1228Z" fill="#EC1C24"/>
<path d="M488.597 50.0943C488.776 50.0943 488.911 50.0943 489.09 50.048V86.1603C488.955 86.1603 488.776 86.1603 488.642 86.1603C487.88 85.2807 487.925 84.1695 487.925 83.1047C487.925 73.1506 487.925 63.1503 487.925 53.1963C487.925 52.1314 487.836 51.0203 488.597 50.1406V50.0943Z" fill="#F58C90"/>
<path d="M489.09 9.30594C488.911 9.30594 488.776 9.30594 488.597 9.25965C487.567 6.52808 487.612 3.8428 488.597 1.11123C488.776 1.11123 488.955 1.01863 489.135 0.972336V9.30594H489.09Z" fill="#F58E92"/>
<path d="M262.932 0.0461349C261.633 0.972091 260.2 0.37022 258.856 0.462815C258.856 0.323922 258.856 0.185028 258.901 0.0461349H262.932Z" fill="#F58E92"/>
<path d="M441.654 0.0461349C440.355 0.972091 438.922 0.37022 437.578 0.462815C437.578 0.323922 437.578 0.185028 437.623 0.0461349H441.654Z" fill="#F58E92"/>
<path d="M488.597 50.0943C488.597 62.0854 488.597 74.1228 488.597 86.114C487.835 86.114 487.119 86.2066 486.357 86.2066C416.123 86.2066 345.888 86.2066 275.653 86.2066H273.324V50.2794C273.772 49.8165 274.399 50.048 274.981 50.048C345.798 50.048 416.66 50.048 487.477 50.048C487.835 50.048 488.239 50.048 488.597 50.0943Z" fill="#EC1C24"/>
<path d="M170.525 37.1772V1.15749H183.918C185.844 8.79663 187.77 16.4358 189.696 24.0286C189.876 24.0286 190.01 24.0286 190.189 24.0286C192.115 16.4358 193.996 8.84292 195.923 1.15749H209.405V37.1309H200.805V11.6671C200.671 11.6671 200.536 11.6671 200.402 11.6208C198.117 20.1859 195.788 28.751 193.504 37.2698H186.471C184.142 28.7047 181.858 20.1396 179.573 11.5745C179.439 11.5745 179.349 11.5745 179.215 11.5745V37.1309H170.57L170.525 37.1772Z" fill="#EC1C24"/>
<path d="M10.7054 11.4819V37.0846H2.15002V1.20378H15.543C17.4691 8.75033 19.3951 16.4358 21.3212 24.0749C21.4556 24.0749 21.6348 24.0749 21.7692 24.0749C23.6952 16.4821 25.5765 8.84292 27.5474 1.15749H40.9851V37.1309H32.3402V11.6671C32.2058 11.6671 32.1162 11.6671 31.9818 11.6208C29.6974 20.1859 27.3682 28.7047 25.0838 37.2698H18.0514C15.7222 28.7047 13.4377 20.1396 11.1533 11.5745C11.0189 11.5745 10.8846 11.5745 10.7502 11.5745L10.7054 11.4819Z" fill="#EC1C24"/>
<path d="M77.7598 61.0669V86.0677H69.0701V50.1869H82.5078C84.4339 57.826 86.4048 65.6504 88.51 74.0766C90.6153 65.743 92.5862 57.9649 94.557 50.1869H107.905V86.1603H99.4842V60.2798C99.3498 60.2798 99.2154 60.2335 99.0811 60.1872C96.7519 68.7986 94.4674 77.41 92.0934 86.1603H84.9266C82.687 77.8267 80.4474 69.4468 78.163 61.0669C78.0286 61.0669 77.8942 61.0669 77.715 61.1132L77.7598 61.0669Z" fill="#EC1C24"/>
<path d="M185.755 69.3078C189.024 70.9282 189.965 73.7523 190.413 76.9469C190.816 79.9563 190.547 83.1045 191.801 86.1139H182.843C182.037 84.0305 181.992 81.8545 181.813 79.7248C181.41 74.2616 179.484 72.8264 175.183 73.1505C173.571 73.2894 171.914 73.1505 170.077 73.1505V86.0676H160.895V50.0016C163.985 50.0016 167.076 49.9553 170.167 50.0016C174.332 50.0942 178.543 49.5849 182.664 50.4645C189.786 51.9924 193.1 59.0296 189.696 65.465C188.845 67.0855 187.636 68.2892 185.71 69.2152L185.755 69.3078Z" fill="#EC1C24"/>
<path d="M311.711 37.1772V1.20378H320.894V14.7227C324.97 9.81518 328.598 5.50948 332.226 1.15749H343.648C339.258 6.01876 335.093 10.6485 330.837 15.3709C335.675 22.6397 340.378 29.8158 345.305 37.2235H333.839C330.793 32.3159 327.702 27.362 324.611 22.4082C321.834 24.399 320.401 26.8528 320.849 30.4177C321.117 32.5937 320.894 34.8623 320.894 37.2235H311.666L311.711 37.1772Z" fill="#EC1C24"/>
<path d="M162.507 22.3156H146.651V29.0288H164.702V37.1309H137.468V1.15749H164.209V8.61143H146.785C146.382 10.6948 146.606 12.593 146.606 14.7227H162.552V22.2693L162.507 22.3156Z" fill="#EC1C24"/>
<path d="M196.236 50.0943H205.374V62.9188C205.553 62.9651 205.687 63.0577 205.866 63.104C209.495 58.752 213.123 54.4463 216.706 50.0943H228.173C223.739 55.0019 219.573 59.6317 215.273 64.354C220.021 71.5765 224.769 78.7064 229.651 86.114H218.184C215.228 81.3453 212.137 76.3915 209.136 71.5765C207.882 72.7802 206.673 73.9377 205.329 75.2803V86.0677H196.236V50.0943Z" fill="#EC1C24"/>
<path d="M357.31 8.70403V14.769H373.211V22.223H357.4C357.131 24.5379 357.176 26.7139 357.355 29.0751H375.272V37.1772H348.038V1.15749H374.779V8.65773H357.31V8.70403Z" fill="#EC1C24"/>
<path d="M57.0657 29.0751H75.0723V37.2235H47.9728V1.20377H74.6243V8.75032H57.1105V14.7227H72.9222C73.2806 17.2691 73.0566 19.6303 73.1014 22.223H57.1105V29.0751H57.0657Z" fill="#EC1C24"/>
<path d="M259.707 78.1508V86.0677H232.563V50.2332H259.214V57.7797H241.7C241.297 59.8631 241.521 61.715 241.521 63.891H257.467V71.2987H241.656V78.1971H259.707V78.1508Z" fill="#EC1C24"/>
<path d="M66.4271 86.114H56.8415C56.1696 84.1232 55.4977 82.1787 54.7811 80.0953H42.5975C41.9256 81.9935 41.2089 84.0306 40.4922 86.114H31.041C35.3859 74.0303 39.7308 62.0854 44.0308 50.1406H53.4373C57.7374 62.0854 62.0822 73.984 66.4719 86.114H66.4271Z" fill="#EC1C24"/>
<path d="M126.987 76.8544C129.361 67.5486 131.6 58.8909 133.84 50.1406H143.47C139.708 62.2243 135.99 74.1229 132.228 86.0677H121.522C117.894 74.2155 114.266 62.2706 110.593 50.1869H120.223C122.418 58.752 124.658 67.456 127.032 76.8544H126.987Z" fill="#EC1C24"/>
<path d="M216.438 1.15749H241.835C242.059 3.65757 242.014 6.11135 241.835 8.70403H225.53V15.9728H239.64V23.1952H225.441V37.1772H216.438V1.15749Z" fill="#EC1C24"/>
<path d="M488.552 1.1112C488.552 3.84277 488.552 6.52804 488.552 9.25961C485.237 9.25961 481.878 9.25961 478.384 9.25961V37.1772H469.291V9.35221H458.72V1.1112H488.462H488.552Z" fill="#EC1C24"/>
<path d="M283.268 37.1772V1.20377H292.361V29.0751H307.142V37.1772H283.268Z" fill="#EC1C24"/>
<path d="M80.3579 37.1772V1.20377H89.4956V29.1214H104.322V37.2235H80.3579V37.1772Z" fill="#EC1C24"/>
<path d="M132.81 37.1772H108.98V1.15749H117.939V29.0288H132.765V37.1309L132.81 37.1772Z" fill="#EC1C24"/>
<path d="M389.605 29.0751H404.342V37.2235H380.647V1.20377H389.605V29.0751Z" fill="#EC1C24"/>
<path d="M417.69 37.1772H408.687V1.20377H417.69V37.1772Z" fill="#EC1C24"/>
<path d="M145.62 50.1406H154.489V86.0214H145.62V50.1406Z" fill="#EC1C24"/>
<path d="M252.988 19.1211C252.943 17.084 253.302 15.1395 254.063 13.2876C255.317 10.2782 257.602 8.56517 260.827 8.47258C264.007 8.37998 266.471 9.86151 267.815 12.8709C269.651 16.9914 269.651 21.2508 267.815 25.3713C266.471 28.3806 264.097 29.8159 260.827 29.7233C257.647 29.6307 255.497 28.0566 254.153 25.1398C253.302 23.2416 252.943 21.2045 252.988 19.0748V19.1211Z" fill="#FFEA96"/>
<path d="M467.186 64.3076V55.7888C469.291 55.3721 471.262 55.6499 473.323 55.5573V79.0766H467.724C467.634 78.521 467.589 77.9192 467.5 77.2247C467.32 77.3636 467.141 77.4562 467.007 77.5951C465.932 78.984 464.454 79.3544 462.841 79.4933C460.512 79.6785 458.228 79.6322 455.943 79.1229C452.852 78.4284 451.509 76.808 451.419 73.5209C451.374 71.7615 451.374 69.9559 451.419 68.1966C451.509 64.9558 452.673 63.1965 455.719 62.6872C459.527 62.039 463.513 61.2056 467.186 64.215V64.3076Z" fill="#FEFEFE"/>
<path d="M379.348 79.5398C377.332 79.5398 375.317 79.725 373.346 79.5398C369.986 79.1694 368.284 76.9934 368.195 73.4285C368.195 71.7154 368.15 70.0487 368.195 68.3357C368.284 64.9097 370.031 62.8263 373.301 62.5022C377.377 62.0855 381.498 62.0855 385.574 62.5022C388.71 62.8263 390.367 64.7245 390.591 67.9653C390.725 69.8172 390.725 71.6691 390.591 73.5211C390.412 77.3175 388.62 79.3083 384.902 79.5861C383.066 79.725 381.184 79.5861 379.303 79.5861L379.348 79.5398Z" fill="#FEFEFE"/>
<path d="M289.405 67.5949C289.27 64.3541 290.3 62.8725 293.078 62.5947C297.064 62.1318 301.095 62.0855 305.127 62.5022C308.217 62.8262 309.83 64.5856 309.92 67.7801C310.054 71.5302 309.92 75.2804 309.92 79.1694H304.231C304.141 78.8453 304.007 78.4749 303.917 78.1045C303.693 78.1971 303.469 78.2434 303.335 78.3823C302.394 79.2157 301.275 79.6323 300.065 79.6323C297.243 79.6323 294.421 80.049 291.599 79.3083C289.136 78.6601 288.554 77.4563 288.598 73.7062C288.598 70.8821 289.405 69.5394 291.689 69.1227C295.586 68.382 299.528 68.2431 303.514 69.4005C303.917 68.6598 303.693 67.919 303.425 66.8079C300.468 66.5301 297.467 65.4189 294.645 67.6875H289.405V67.5949Z" fill="#FEFEFE"/>
<path d="M439.415 79.1694H433.815C433.681 78.8453 433.547 78.4286 433.457 78.1508C429.202 80.4657 424.767 80.049 420.422 78.9379C417.959 78.336 418.004 75.6971 418.048 73.5211C418.048 71.3914 418.765 69.4468 421.094 69.0302C425.081 68.2894 429.067 68.1505 433.054 69.2617C433.412 68.5672 433.278 67.8264 433.054 67.132C430.546 65.6967 425.932 65.9282 424.275 67.6412H419.079C418.631 64.5393 419.706 62.8263 422.483 62.5022C426.559 62.0392 430.68 61.9929 434.756 62.4096C437.757 62.7337 439.37 64.493 439.459 67.5486C439.594 71.2988 439.459 75.0952 439.459 79.0768L439.415 79.1694Z" fill="#FEFEFE"/>
<path d="M334.287 69.4005H328.464C328.15 67.5022 326.806 67.1319 325.194 67.1782C324.387 67.1782 323.536 67.1782 322.73 67.1782C319.415 67.1782 318.833 67.78 318.878 71.2524C318.878 73.7988 319.639 74.5395 322.058 74.5858C323.178 74.5858 324.298 74.5858 325.418 74.5858C327.389 74.5395 327.702 74.2617 328.553 72.3635C330.39 72.3635 332.226 72.3635 334.063 72.3635C334.6 76.3914 333.301 78.66 329.628 79.3082C325.597 80.0027 321.476 79.9101 317.4 79.2619C317.265 79.2619 317.086 79.2619 316.952 79.1693C313.458 78.0581 312.114 74.7247 312.652 68.6597C313.01 64.817 314.667 62.8725 318.116 62.5021C321.61 62.1317 325.104 62.1317 328.598 62.5021C332.764 62.9188 334.287 64.7244 334.197 69.4005H334.287Z" fill="#FEFEFE"/>
<path d="M409.135 79.1231C409.135 76.2063 409.09 73.4284 409.135 70.6506C409.18 68.6598 408.418 67.6412 406.492 67.4097C405.238 67.2708 403.984 67.1782 402.729 67.4097C400.848 67.8264 399.863 68.8913 399.907 70.9284C399.907 73.6136 399.907 76.2989 399.907 79.0768H393.86V62.5947H399.728C400.266 62.8725 399.728 63.6596 400.176 64.1689C400.355 64.0763 400.535 63.9837 400.714 63.8911C403.491 61.7151 410.21 61.6225 413.032 63.7522C414.465 64.817 415.092 66.3449 415.271 68.1042C415.316 68.7061 415.316 69.3542 415.316 69.9561C415.316 72.9655 415.316 75.9285 415.316 79.0768H409.18L409.135 79.1231Z" fill="#FEFEFE"/>
<path d="M339.707 67.3169C338.676 67.2243 337.825 67.178 336.84 67.0854V62.6871C337.78 62.5945 338.676 62.5482 339.617 62.4556C339.707 61.2519 339.751 60.0944 339.841 58.8907H345.619C346.157 59.9092 345.619 61.113 346.022 62.4556H355.115V67.178H345.978V74.2153C347.321 75.4653 348.665 75.0949 349.83 74.7708C350.815 73.9375 350.546 72.9189 350.815 71.993H355.742C356.638 76.2524 355.026 78.9376 351.039 79.4932C348.665 79.8636 346.291 79.9099 343.917 79.308C341.14 78.6136 339.886 77.0857 339.796 74.1227C339.751 71.9004 339.796 69.6781 339.796 67.3632L339.707 67.3169Z" fill="#FEFEFE"/>
<path d="M448.463 79.2155H442.595V62.6872H448.463V79.2155Z" fill="#FEFDFD"/>
<path d="M365.014 62.6872V72.2245H359.102V62.6872H365.014Z" fill="#FEFCFC"/>
<path d="M448.373 60.5112H442.64C442.192 58.9371 442.461 57.4093 442.461 55.6963H448.373C448.687 57.2704 448.642 58.8445 448.373 60.5112Z" fill="#FEF9FA"/>
<path d="M359.102 74.4006H364.969V78.984C363.133 79.3544 361.207 79.0766 359.236 79.1229C358.833 77.5488 358.967 76.0673 359.102 74.4006Z" fill="#FEFAFA"/>
<path d="M170.212 65.7429V57.9649C173.123 57.9649 176.079 57.7797 178.991 58.0112C180.872 58.1963 181.947 60.1409 181.768 62.1317C181.544 64.2151 180.245 65.604 178.05 65.6966C175.542 65.7892 172.989 65.6966 170.212 65.6966V65.7429Z" fill="#FFEA96"/>
<path d="M52.4968 72.6877H44.8373C46.0915 68.6598 47.3009 64.7708 48.6894 60.2799C50.078 64.7245 51.2426 68.6135 52.4968 72.6877Z" fill="#FFEA96"/>
<path d="M458.093 74.4007C456.884 72.5025 457.242 70.558 457.511 68.7061C457.645 67.7339 458.541 67.2246 459.526 67.2246C461.363 67.2246 463.244 67.132 465.081 67.2246C466.872 67.3172 467.724 68.4283 467.634 70.2802C467.544 72.1322 468.082 74.3544 465.305 74.6785C462.931 74.91 460.601 75.0026 458.093 74.447V74.4007Z" fill="#EC1C24"/>
<path d="M384.141 67.919C384.499 70.0487 384.365 71.808 384.32 73.4747C382.528 74.91 377.064 75.2341 375.451 74.1692C373.928 73.1506 374.466 71.5765 374.376 70.1876C374.331 69.0301 374.645 67.919 375.809 67.5949C378.587 66.9004 381.364 66.7616 384.141 67.9653V67.919Z" fill="#EC1C24"/>
<path d="M295.227 72.5951C297.646 71.947 300.11 72.2247 302.484 72.3636C303.648 72.4099 304.141 73.2433 303.693 74.7711C300.871 76.1138 297.915 75.5119 295.093 75.2341C294.466 74.1693 294.511 73.4748 295.183 72.5951H295.227Z" fill="#EC1E26"/>
<path d="M432.965 72.5949C433.681 74.2616 433.233 75.1876 432.069 75.3265C429.516 75.6969 426.918 75.9747 424.499 75.1413C423.961 74.3079 424.006 73.6598 424.499 72.7338C427.231 71.993 430.098 72.1782 432.92 72.6412L432.965 72.5949Z" fill="#EC1E26"/>
</svg>
