<svg width="31" height="36" viewBox="0 0 31 36" fill="none" xmlns="http://www.w3.org/2000/svg">
<path d="M30 27.6021L25.7382 22.3912C25.0765 21.5821 24.1765 21.129 23.2412 21.129H22.0588L20.2941 22.2078H16.7647C15.7941 22.2078 15 23.1788 15 24.3655V26.5232" stroke="black" stroke-width="2" stroke-linecap="round" stroke-linejoin="round"/>
<path d="M24.706 34.0752L22.9413 31.9175H12.353L4.41187 22.2078L5.79716 21.7871C7.14716 21.3771 8.58539 21.7547 9.67069 22.8228L13.2354 26.5232H20.2942" stroke="black" stroke-width="2" stroke-linecap="round" stroke-linejoin="round"/>
<path d="M14.9999 8.95954C15.5205 7.74044 16.6235 6.94209 17.8499 7.13628C19.2617 7.35205 20.294 8.90559 20.294 10.6425C20.294 12.5197 19.6852 14.3214 18.5999 15.6484L14.9999 20.0501L11.3999 15.6484C10.3146 14.3214 9.70581 12.5197 9.70581 10.6425C9.70581 8.8085 10.8529 7.21179 12.3529 7.1147C13.4999 7.03918 14.5146 7.80516 14.9999 8.97032V8.95954Z" stroke="black" stroke-width="2" stroke-linecap="round" stroke-linejoin="round"/>
</svg>
